<?xml version="1.0" encoding="UTF-8"?>
<svg width="200px" height="200px" viewBox="0 0 200 200" version="1.1" xmlns="http://www.w3.org/2000/svg" xmlns:xlink="http://www.w3.org/1999/xlink">
    <title>NIIDIK Services</title>
    <defs>
        <linearGradient x1="0%" y1="0%" x2="100%" y2="100%" id="linearGradient-1">
            <stop stop-color="#00C853" offset="0%"></stop>
            <stop stop-color="#2196F3" offset="100%"></stop>
        </linearGradient>
    </defs>
    <g stroke="none" stroke-width="1" fill="none" fill-rule="evenodd">
        <circle fill="url(#linearGradient-1)" cx="100" cy="100" r="100"></circle>
        <g transform="translate(40.000000, 40.000000)" fill="#FFFFFF" fill-rule="nonzero">
            <path d="M60,0 C26.863,0 0,26.863 0,60 C0,93.137 26.863,120 60,120 C93.137,120 120,93.137 120,60 C120,26.863 93.137,0 60,0 Z M60,110 C32.386,110 10,87.614 10,60 C10,32.386 32.386,10 60,10 C87.614,10 110,32.386 110,60 C110,87.614 87.614,110 60,110 Z"></path>
            <path d="M60,20 C37.909,20 20,37.909 20,60 C20,82.091 37.909,100 60,100 C82.091,100 100,82.091 100,60 C100,37.909 82.091,20 60,20 Z M60,90 C43.431,90 30,76.569 30,60 C30,43.431 43.431,30 60,30 C76.569,30 90,43.431 90,60 C90,76.569 76.569,90 60,90 Z"></path>
            <path d="M85,60 C85,73.807 73.807,85 60,85 C46.193,85 35,73.807 35,60 C35,46.193 46.193,35 60,35 C73.807,35 85,46.193 85,60 Z"></path>
            <path d="M60,45 L45,65 L75,65 L60,45 Z"></path>
            <path d="M60,75 L70,60 L50,60 L60,75 Z"></path>
        </g>
    </g>
</svg>