<svg width="200" height="200" xmlns="http://www.w3.org/2000/svg">
  <!-- Circuit Board Pattern -->
  <defs>
    <pattern id="circuit" width="200" height="200" patternUnits="userSpaceOnUse">
      <!-- Horizontal lines -->
      <line x1="0" y1="20" x2="200" y2="20" stroke="#60a5fa" stroke-width="0.5" />
      <line x1="0" y1="80" x2="200" y2="80" stroke="#60a5fa" stroke-width="0.5" />
      <line x1="0" y1="140" x2="200" y2="140" stroke="#60a5fa" stroke-width="0.5" />
      
      <!-- Vertical lines -->
      <line x1="20" y1="0" x2="20" y2="200" stroke="#60a5fa" stroke-width="0.5" />
      <line x1="80" y1="0" x2="80" y2="200" stroke="#60a5fa" stroke-width="0.5" />
      <line x1="140" y1="0" x2="140" y2="200" stroke="#60a5fa" stroke-width="0.5" />
      
      <!-- Connection nodes -->
      <circle cx="20" cy="20" r="3" fill="#60a5fa" />
      <circle cx="80" cy="20" r="3" fill="#60a5fa" />
      <circle cx="140" cy="20" r="3" fill="#60a5fa" />
      
      <circle cx="20" cy="80" r="3" fill="#60a5fa" />
      <circle cx="80" cy="80" r="3" fill="#60a5fa" />
      <circle cx="140" cy="80" r="3" fill="#60a5fa" />
      
      <circle cx="20" cy="140" r="3" fill="#60a5fa" />
      <circle cx="80" cy="140" r="3" fill="#60a5fa" />
      <circle cx="140" cy="140" r="3" fill="#60a5fa" />
      
      <!-- Circuit traces -->
      <path d="M20,20 L20,50 L50,50 L50,80" stroke="#60a5fa" stroke-width="1" fill="none" />
      <path d="M80,20 L80,40 L120,40 L120,80" stroke="#60a5fa" stroke-width="1" fill="none" />
      <path d="M140,80 L140,110 L100,110 L100,140" stroke="#60a5fa" stroke-width="1" fill="none" />
      <path d="M20,140 L20,170 L60,170 L60,200" stroke="#60a5fa" stroke-width="1" fill="none" />
      
      <!-- Curved traces -->
      <path d="M140,20 C170,20 170,50 140,50" stroke="#60a5fa" stroke-width="1" fill="none" />
      <path d="M20,80 C50,80 50,110 20,110" stroke="#60a5fa" stroke-width="1" fill="none" />
      <path d="M80,140 C110,140 110,170 80,170" stroke="#60a5fa" stroke-width="1" fill="none" />
      
      <!-- Circuit elements -->
      <rect x="45" y="75" width="10" height="10" stroke="#60a5fa" stroke-width="1" fill="none" />
      <rect x="115" y="75" width="10" height="10" stroke="#60a5fa" stroke-width="1" fill="none" />
      <rect x="75" y="135" width="10" height="10" stroke="#60a5fa" stroke-width="1" fill="none" />
    </pattern>
  </defs>
  <rect width="100%" height="100%" fill="url(#circuit)" />
</svg>